<?xml version="1.0" encoding="UTF-8" standalone="no"?>
<!DOCTYPE svg PUBLIC "-//W3C//DTD SVG 1.1//EN" "http://www.w3.org/Graphics/SVG/1.1/DTD/svg11.dtd">
<svg width="100%" height="100%" viewBox="0 0 607 546" version="1.1" xmlns="http://www.w3.org/2000/svg" xmlns:xlink="http://www.w3.org/1999/xlink" xml:space="preserve" xmlns:serif="http://www.serif.com/" style="fill-rule:evenodd;clip-rule:evenodd;stroke-linejoin:round;stroke-miterlimit:2;">
    <g transform="matrix(1,0,0,1,-2449.33,-641.23)">
        <g>
            <path d="M2723.3,1185.94C2772.56,1189.15 2804.7,1170.58 2805.47,1152.92C2806.24,1135.25 2812.06,1137.76 2807.21,1123.75C2802.36,1109.74 2785.11,1085.48 2797.51,1075.78C2809.91,1066.08 2857.42,1045.23 2871.66,1041.01C2885.9,1036.79 2914.91,1026.24 2936.01,1027.82C2957.11,1029.4 2972.4,1034.68 2983.48,1029.4C2994.55,1024.13 3005.1,1022.55 3010.9,1027.82C3016.71,1033.1 3033.58,1036.79 3033.58,1036.79C3033.58,1036.79 3061.9,991.441 3050.46,964.719C3061.82,913.02 3054.67,835.23 3028.73,789.551C2969.17,742.93 2959.85,736.961 2959.85,736.961C2959.85,736.961 2949.85,680.301 2880.14,672.809C2843.18,622.75 2810.89,649.422 2790.31,651.289C2719.66,615.27 2629.37,686.852 2628.9,696.211C2549.83,705.559 2510.53,740.191 2492.75,807.559C2420.7,854.34 2450.19,974.719 2495.69,1035.87C2493.73,1087.24 2631.45,1179.95 2723.3,1185.94" style="fill:rgb(217,160,121);fill-rule:nonzero;"/>
            <path d="M2884.16,897.23C2882.72,895.512 2864.05,944.43 2871.68,987.719C2874.46,1003.47 2882.31,1020.39 2894.26,1034.24C2907.81,1030.39 2923.22,1026.88 2936.01,1027.84C2957.11,1029.42 2972.39,1034.68 2983.47,1029.41C2994.54,1024.13 3005.11,1022.56 3010.91,1027.84C3013.22,1029.94 3017.32,1031.64 3021.39,1033.11C3043.78,1002.17 3019.92,954.102 2982.12,937.879C2937.52,918.762 2883.1,907.602 2884.23,898.301C2884.3,897.719 2884.26,897.352 2884.16,897.23" style="fill:rgb(171,108,66);fill-rule:nonzero;"/>
            <path d="M2544.34,915.73C2544.34,915.73 2509.33,925.859 2503.36,949.23C2497.39,972.609 2506.5,986.949 2534.11,995.559C2561.72,1004.18 2572.17,1012.28 2589.74,1004.61C2593.78,1021.08 2633.54,1027.86 2671.25,1016.86C2631.73,1003.74 2609.69,999.398 2606.57,981.141C2603.44,962.891 2600.62,929.691 2600.62,929.691C2600.62,929.691 2558.35,925.672 2544.34,915.73" style="fill:rgb(82,54,24);fill-rule:nonzero;"/>
            <path d="M2761.51,694.93L2834.53,667.191L2878.18,711.66L2867.98,732.059L2830.45,748.781L2765.18,713.699L2761.51,694.93" style="fill:rgb(82,54,24);fill-rule:nonzero;"/>
            <path d="M2467.26,984.148C2475.1,1003.51 2484.89,1021.38 2495.67,1035.87C2493.72,1087.23 2631.44,1179.96 2723.29,1185.95C2772.55,1189.16 2804.7,1170.59 2805.47,1152.92C2805.81,1144.98 2807.14,1141.27 2808.1,1138.15C2793.08,1135.57 2775.78,1134.13 2766.92,1138.9C2749.42,1148.33 2733.6,1152.01 2709.36,1141.91C2685.13,1131.81 2616.71,1121.61 2591.37,1100.1C2566.03,1078.6 2495.22,1043.9 2489.37,992.141C2480.83,987.609 2473.49,985.148 2467.26,984.148" style="fill:rgb(171,108,66);fill-rule:nonzero;"/>
            <path d="M2829.18,762.02C2829.18,762.02 2794.29,766.109 2789.35,781.398C2784.4,796.691 2789.34,812.672 2789.35,812.672L2804.71,832.59C2804.71,832.59 2804.87,858.41 2795.78,858.719C2786.68,859.02 2759.74,853.199 2748.04,868.16C2736.34,883.109 2732.35,893.988 2727.52,916.078C2722.7,938.18 2722.7,942.238 2727.05,947.73C2731.4,953.219 2759.25,966.859 2771.72,980.539C2784.18,994.211 2779.36,992.75 2778.15,1007.1C2776.94,1021.46 2777.72,1038.32 2765.82,1031.51C2753.92,1024.69 2745.12,1014.61 2730.5,1015.64C2715.89,1016.66 2725.16,999.16 2695.97,1024.32C2666.78,1049.49 2655.12,1056.31 2668.68,1068.3C2682.25,1080.29 2694.87,1080.84 2707.04,1081.35C2719.22,1081.85 2747.75,1071.1 2757.73,1100.26C2767.71,1129.42 2767.05,1142.83 2782.54,1142.29C2788.63,1142.08 2797.14,1145.29 2805.84,1148.72C2807.26,1135.75 2811.63,1136.48 2807.22,1123.75C2802.37,1109.74 2785.1,1085.5 2797.5,1075.79C2809.9,1066.09 2857.41,1045.23 2871.65,1041.01C2885.89,1036.79 2914.91,1026.26 2936.01,1027.84C2936.94,1027.91 2937.71,1028.04 2938.61,1028.12C2931.17,1018.42 2930.84,1010.87 2917.54,1005.79C2899.11,998.75 2895.79,998.34 2908.56,988.32C2921.34,978.289 2934.88,981.871 2920.48,961.34C2906.09,940.809 2906.3,931.191 2909.82,921.98C2913.34,912.762 2914.68,893.648 2908.91,889.578C2903.13,885.512 2896.95,872.699 2897.27,865.988C2897.6,859.289 2898.61,858.922 2906.46,849.738C2914.32,840.57 2919.15,832.469 2916.44,822.988C2913.72,813.512 2829.18,762.02 2829.18,762.02" style="fill:rgb(82,54,24);fill-rule:nonzero;"/>
            <path d="M2573.58,709.422C2530.39,726.578 2505.76,758.27 2492.76,807.559C2492.51,807.719 2492.3,807.898 2492.06,808.059C2496.44,813.531 2501.07,817.379 2504.92,815.871C2507.16,814.988 2512.99,812.551 2516.69,810.98C2518.25,814.039 2521.62,816.602 2523.18,819.762C2526.26,826 2535.96,835.172 2536.45,842.309C2536.93,849.461 2540.46,848.109 2550.59,856.551C2560.72,864.988 2555.2,861 2560.85,864.328C2566.5,867.66 2571.15,872.891 2574.49,872.922C2577.84,872.949 2594.08,874.469 2604.13,883.09C2614.19,891.711 2606.65,895.289 2614.73,897.98C2622.82,900.68 2643.44,902.91 2652.66,910.219C2661.87,917.52 2664.68,924.34 2676.81,923.859C2688.93,923.391 2716.72,931.238 2722.66,936.941C2728.61,942.641 2748.82,940.27 2748.82,940.27C2748.82,940.27 2757.15,924.34 2746.22,893.441C2682.99,907.219 2676.63,864.5 2682.89,853.789C2689.15,843.09 2689.89,843.828 2689.7,833.66C2689.51,823.469 2624.67,805.77 2628.25,805.578C2631.83,805.391 2614.31,798.031 2604.89,795.391C2598.23,793.531 2603.36,784.789 2606.99,779.711C2618.87,776.199 2638.54,770.422 2638.54,770.422C2638.54,770.422 2634.67,751.781 2646.32,745.961C2635.71,731.559 2601.9,716.488 2573.58,709.422" style="fill:rgb(82,54,24);fill-rule:nonzero;"/>
            <path d="M2958.94,733.379C2947.06,744.191 2933.07,760.16 2941.78,766.969C2966.77,783.629 2975.7,799.711 2975.12,810.91C2974.55,822.121 2980.27,841.941 2980.27,841.941C2980.27,841.941 3002.11,864.941 3003.26,872.988C3004.41,881.031 3007.87,894.219 3007.87,894.219C3007.87,894.219 3013.3,843.09 3029.38,829.012C3033.67,825.27 3038.17,823.309 3042.46,821.891C3038.68,810.078 3034.14,799.09 3028.73,789.559C2969.17,742.93 2959.85,736.961 2959.85,736.961C2959.85,736.961 2959.52,735.48 2958.94,733.379" style="fill:rgb(82,54,24);fill-rule:nonzero;"/>
            <path d="M2605.58,815.23C2605.58,815.23 2625.82,808.301 2640.33,831.301C2654.84,854.309 2674.53,873.59 2674.53,873.59C2674.53,873.59 2688.21,839.59 2686.97,835.238C2685.72,830.891 2646.72,817.66 2635.16,812.789C2623.6,807.91 2615.91,807.738 2605.58,815.23" style="fill:rgb(163,127,91);fill-rule:nonzero;"/>
            <path d="M2511.69,784.961C2511.69,784.961 2535.41,766.52 2559.62,763.57C2583.84,760.621 2640.38,746.82 2640.38,746.82C2640.38,746.82 2599.06,723.422 2588.12,720.82C2577.18,718.219 2568.7,711.898 2564.63,719C2560.57,726.102 2560.56,743.879 2546.7,746.031C2532.84,748.191 2511.7,770.328 2511.69,784.961" style="fill:rgb(163,127,91);fill-rule:nonzero;"/>
            <path d="M2772.87,695.09L2835.99,671.641L2861.63,699.699L2825.25,722.711L2772.87,695.09" style="fill:rgb(163,127,91);fill-rule:nonzero;"/>
            <path d="M2544.35,915.738C2544.35,915.738 2532.06,919.391 2520.8,927.16C2521.81,941.441 2533.28,957.289 2557.05,962.129C2536.23,950.25 2544.1,928.75 2549.49,918.5C2547.6,917.621 2545.75,916.73 2544.35,915.738" style="fill:rgb(163,127,91);fill-rule:nonzero;"/>
            <path d="M2547.65,973.02L2578.64,984.66C2578.64,984.66 2556.29,1004.01 2547.65,973.02" style="fill:rgb(163,127,91);fill-rule:nonzero;"/>
            <path d="M2716.31,1023.32C2716.31,1023.32 2727.77,1048.66 2756.53,1062.14C2749.09,1041.02 2749.49,1026.54 2749.49,1026.54C2749.49,1026.54 2721.94,1030.16 2716.31,1023.32" style="fill:rgb(163,127,91);fill-rule:nonzero;"/>
            <path d="M2707.66,1028.55L2676.89,1063.35L2668.04,1055.1C2668.04,1055.1 2687.95,1030.16 2703.84,1029.56" style="fill:rgb(163,127,91);fill-rule:nonzero;"/>
            <path d="M2754,875.961C2754,875.961 2756.65,902.59 2762.77,908.762C2768.88,914.93 2794.56,947.07 2794.56,947.07C2794.56,947.07 2781.73,883.922 2796.83,868.012C2766.74,871.512 2754,875.961 2754,875.961" style="fill:rgb(163,127,91);fill-rule:nonzero;"/>
            <path d="M2726.88,906.91C2726.88,906.91 2727.89,928.219 2731.94,937.148C2711.75,925.199 2686.18,915.121 2676.23,913.91C2666.29,912.699 2659.63,900.801 2656.14,892.762C2652.65,884.719 2660.93,892.84 2672.58,900.391C2684.24,907.93 2716.2,915.621 2726.88,906.91" style="fill:rgb(163,127,91);fill-rule:nonzero;"/>
            <path d="M2806.61,783.871C2806.61,783.871 2880.72,829.02 2886.71,828.621C2892.71,828.219 2904.29,824.219 2904.29,824.219C2904.29,824.219 2891.71,853.98 2884.12,851.789C2876.53,849.59 2861.75,843.602 2857.15,839.199C2852.56,834.809 2806.22,805.84 2806.61,783.871" style="fill:rgb(163,127,91);fill-rule:nonzero;"/>
            <path d="M2821.4,837.211C2821.4,837.211 2838.17,877.949 2825.99,891.738C2813.81,905.52 2800.42,912.711 2802.02,910.109C2803.62,907.52 2809.01,853.98 2821.4,837.211" style="fill:rgb(163,127,91);fill-rule:nonzero;"/>
            <path d="M2787.28,1011.27C2787.28,1011.27 2794.33,993.75 2790.73,987.801C2787.13,981.859 2787.28,971.691 2794.48,967.309C2801.68,962.93 2847.52,953.852 2849.4,945.09C2855.65,958.859 2861.44,967.461 2855.5,970.59C2849.55,973.719 2828.9,984.98 2827.65,986.859C2826.4,988.738 2809.03,1009.86 2787.28,1011.27" style="fill:rgb(48,28,6);fill-rule:nonzero;"/>
            <path d="M2768.04,1052.36C2768.04,1052.36 2783.52,1058.11 2793.69,1047.93C2803.86,1037.76 2805.04,1025.09 2812.85,1024.35C2820.67,1023.61 2847.79,1000.47 2858.69,1000.18C2869.6,999.879 2873.29,991.328 2879.48,981.16C2885.67,970.988 2898.79,975.121 2900.56,974.09C2902.33,973.059 2882.43,982.781 2886.26,989.121C2890.09,995.461 2877.86,1007.55 2872.99,1010.64C2868.13,1013.74 2862.23,1015.36 2855.6,1016.69C2848.97,1018.01 2841.89,1032.9 2841.89,1032.9C2841.89,1032.9 2888.91,1012.71 2892.01,1010.35C2895.1,1007.99 2915.3,1009.32 2915.3,1009.32C2915.3,1009.32 2916.18,1025.38 2913.53,1024.94C2910.87,1024.5 2870.49,1036 2860.91,1039.39C2851.32,1042.78 2799.44,1066.21 2793.1,1069.9C2786.76,1073.58 2772.91,1069.31 2768.04,1052.36" style="fill:rgb(48,28,6);fill-rule:nonzero;"/>
            <path d="M2965.68,754.051C2995.43,776.75 2994.2,807.398 2985,821.199C2982.13,825.41 2980.5,832.711 2980.01,840.871C2980.04,840.949 2980.27,841.941 2980.27,841.941C2980.27,841.941 2990.19,852.539 2997.01,861.879C2996.23,843.281 2998.12,820.148 3014.45,810.789C3015.37,779.512 2991.14,758.34 2965.68,754.051" style="fill:rgb(163,127,91);fill-rule:nonzero;"/>
            <path d="M2819.28,932.051C2819.28,932.051 2842.18,917.129 2856.85,921.238C2871.51,925.359 2894.67,929.988 2894.67,929.988C2894.67,929.988 2837.55,944.398 2819.28,932.051" style="fill:rgb(163,127,91);fill-rule:nonzero;"/>
            <path d="M2876.99,873.309C2876.99,873.309 2862.04,892.82 2854.97,898.57C2876.73,910.449 2894.96,888.719 2876.99,873.309" style="fill:rgb(163,127,91);fill-rule:nonzero;"/>
            <path d="M2785.27,740.441C2782.76,741.059 2778.52,741.379 2776.77,743.609C2776.11,744.441 2776.18,745.398 2776.11,746.398C2776.06,747.051 2775.89,747.711 2775.73,748.34C2775.02,751.172 2773.18,752.32 2770.56,753.141C2769.98,753.32 2769.42,753.289 2768.83,753.328C2768,753.379 2767.19,753.52 2766.39,753.738C2763.22,754.578 2759.96,756.148 2756.6,756.031C2751.71,755.852 2746.85,754.32 2741.95,755.148C2739,755.641 2736.15,756.77 2733.48,758.102C2730.23,759.719 2727.11,761.719 2724.42,764.18C2722.22,766.191 2720.32,768.512 2718.55,770.891C2716.66,773.449 2714.82,776.109 2713.32,778.922C2712.48,780.488 2711.81,782.262 2710.65,783.629C2708.94,785.641 2706.38,786.781 2704.41,788.52C2703.54,789.289 2702.74,790.172 2701.96,791.031C2701.77,791.238 2701.14,792.02 2700.86,792.102C2700.83,792.109 2700.96,791.98 2700.93,792C2700.61,792.199 2700.33,792.441 2700.02,792.629C2699,793.23 2697.86,793.629 2696.79,794.102C2695.15,794.828 2693.59,795.602 2692.14,796.672C2691.35,797.27 2690.56,797.898 2689.76,798.488C2689.57,798.539 2689.36,798.59 2689.16,798.648C2688.34,798.898 2687.52,799.172 2686.72,799.469C2684.63,800.219 2682.57,800.961 2680.44,801.602C2676.68,802.719 2672.76,803.148 2668.93,804.012C2667.29,804.391 2665.41,804.73 2663.92,805.551C2662.61,806.27 2661.77,807.59 2660.72,808.59C2661.95,808.309 2663.26,807.59 2664.54,807.648C2665.54,807.699 2666.64,808.102 2667.59,808.371C2669.67,808.98 2671.68,809.75 2673.73,810.441C2677.77,811.809 2681.89,812.789 2686.12,813.301C2689.42,813.699 2692.62,813.73 2695.75,812.449C2697.75,811.641 2699.32,809.75 2700.74,808.219C2701.05,807.879 2701.29,807.469 2701.65,807.18C2703.55,805.621 2705.86,804.621 2707.76,803.039C2708.88,802.121 2709.9,801.059 2710.78,799.91C2711.55,798.891 2712.12,797.73 2713,796.801C2714.13,795.609 2715.43,794.578 2716.58,793.41C2717.95,792.012 2719.16,790.469 2720.09,788.738C2721.25,786.57 2721.87,784.219 2722.82,781.961C2723.87,779.469 2725.13,777.02 2726.52,774.691C2727.76,772.609 2729.14,770.57 2730.82,768.82C2733.26,766.281 2736.16,764.109 2739.25,762.422C2741.11,761.422 2743.02,760.602 2745.12,760.32C2749.33,759.762 2753.62,760.66 2757.82,760.012C2761.18,759.488 2764.18,757.75 2767.3,756.531C2768.64,756 2770.11,756.031 2771.44,755.461C2774.15,754.289 2776.49,752.441 2777.11,749.41C2777.31,748.441 2777.43,747.391 2777.4,746.398C2777.37,745.648 2777.12,744.879 2777.55,744.199C2778.12,743.309 2779.16,742.75 2780.09,742.32C2781.76,741.539 2783.55,741.07 2785.27,740.441ZM2689.1,799C2688.98,799.078 2688.85,799.16 2688.73,799.25C2688.7,799.262 2688.61,799.301 2688.63,799.281C2688.7,799.18 2688.81,799.148 2688.91,799.09C2688.97,799.059 2689.04,799.031 2689.1,799" style="fill:rgb(171,108,66);fill-rule:nonzero;"/>
            <path d="M2761.65,669.578C2756.47,670 2749.73,671.219 2746.44,675.73C2745.35,677.219 2745.03,678.91 2744.62,680.66C2744.28,682.07 2743.83,683.52 2742.36,684.109C2740.74,684.75 2738.83,684.352 2737.22,683.949C2734.59,683.289 2732.1,682.301 2729.41,681.941C2720.54,680.762 2711.57,683.66 2706.32,691.16C2705.46,692.391 2704.62,693.84 2704.16,695.27C2703.73,696.602 2703.66,697.969 2703.56,699.352C2703.27,703.441 2704.08,707.5 2706.89,710.641C2709.04,713.059 2711.98,714.551 2714.6,716.379C2715.32,716.879 2716.01,717.379 2716.67,717.949C2717.07,718.289 2717.43,718.539 2717.61,719.012C2718.26,720.68 2717.41,723.109 2716.8,724.629C2716.34,725.762 2715.77,726.852 2715.13,727.891C2714.26,729.32 2713.26,730.73 2712,731.84C2710.74,732.949 2709.08,733.859 2707.42,734.129C2705.5,734.449 2703.53,734.02 2701.68,733.539C2698.57,732.719 2695.55,731.488 2692.36,731.031C2688.15,730.41 2683.67,730.059 2679.44,730.648C2678.33,730.809 2677.22,731.102 2676.12,731.34C2675.02,731.578 2673.91,731.762 2672.82,732.031C2671.22,732.43 2669.68,733.039 2668.12,733.57C2666.07,734.27 2664.05,735.09 2662.03,735.891C2661.3,736.18 2660.54,736.391 2659.87,736.801C2658.96,737.352 2658.37,738.328 2657.64,739.09C2658.52,738.77 2659.43,738.191 2660.37,738.121C2661.52,738.031 2662.83,738.301 2663.98,738.398C2666.07,738.578 2668.14,738.82 2670.22,739.09C2671.21,739.219 2672.22,739.301 2673.2,739.5C2674.17,739.691 2675.12,740 2676.09,740.219C2677.05,740.441 2678.03,740.609 2678.97,740.91C2682.73,742.121 2686.01,744.5 2689.73,745.801C2692.13,746.641 2694.78,746.941 2697.29,747.27C2703.15,748.07 2709.09,748.109 2714.41,745.141C2715.88,744.328 2717.24,743.34 2718.49,742.219C2721.03,739.98 2722.95,737.25 2724.48,734.23C2727.82,727.641 2730.21,717.57 2723.89,711.93C2721.56,709.852 2718.61,708.5 2715.86,707.102C2714.41,706.359 2712.66,705.539 2711.75,704.121C2710.53,702.219 2710.49,699.66 2710.52,697.5C2710.54,696.371 2711.58,694.539 2712.16,693.609C2714.08,690.488 2717.14,688.32 2720.56,687.121C2723.98,685.91 2727.89,685.5 2731.48,686.109C2735.25,686.75 2739.81,688.352 2743.46,686.461C2747.56,684.328 2745.8,679.941 2747.75,676.641C2750.4,672.172 2756.93,670.43 2761.65,669.578" style="fill:rgb(171,108,66);fill-rule:nonzero;"/>
            <path d="M2546.33,869.102C2545.34,869.281 2544.09,868.969 2543.32,869.789C2542.75,870.379 2542.52,871.211 2542.16,871.949C2541.93,872.41 2541.68,872.871 2541.47,873.328C2540.34,875.711 2539.38,878.191 2538.61,880.699C2537.97,882.809 2537.44,884.941 2537.2,887.129C2537.07,888.289 2537,889.301 2537.17,890.461C2537.46,892.398 2538.43,894.148 2539.4,895.82C2540.8,898.238 2542.5,900.609 2543.82,903.039C2544.14,903.629 2544.18,904.469 2544.38,905.07C2544.56,905.59 2544.74,906.109 2544.98,906.609C2545.98,908.711 2547.47,910.602 2549.21,912.129C2551.99,914.57 2555.43,916.09 2558.97,917.09C2565.02,918.801 2571.28,918.961 2577.5,919.469C2585.98,920.172 2594.37,921.781 2602.88,922.012C2607.22,922.129 2611.53,921.859 2615.8,921.102C2612.59,921.148 2609.39,920.988 2606.2,920.512C2599.98,919.559 2593.95,917.789 2587.92,916.02C2583.71,914.789 2579.48,913.602 2575.21,912.57C2570.8,911.512 2566.26,910.449 2562.17,908.43C2560.32,907.52 2558.45,906.359 2557.15,904.73C2556.52,903.941 2556.11,903.051 2555.89,902.059C2555.87,901.969 2555.97,901.898 2555.99,901.809C2556.02,901.629 2555.97,901.211 2555.96,901.121C2555.86,900.191 2555.68,899.23 2555.42,898.328C2554.69,895.789 2553.7,893.34 2552.88,890.828C2552.52,889.711 2552.32,888.539 2551.97,887.41C2551.72,886.609 2551.18,885.852 2550.78,885.121C2550.36,884.371 2549.94,883.641 2549.56,882.871C2548.31,880.352 2547.31,877.75 2546.42,875.09C2545.96,873.719 2545.68,872.25 2545.14,870.922C2545.11,870.859 2544.98,870.898 2544.95,870.852C2544.91,870.801 2544.89,870.73 2544.92,870.672C2545.17,870.051 2545.93,869.621 2546.33,869.102" style="fill:rgb(171,108,66);fill-rule:nonzero;"/>
            <path d="M2512.73,844.512C2508.75,847.781 2504.2,850.129 2499.62,852.469C2496.61,854.012 2493.36,855.512 2490.81,857.77C2488.87,859.5 2487.73,861.84 2486.45,864.051C2485.79,865.191 2485.13,866.309 2484.6,867.531C2482.61,872.109 2481.88,877.059 2481.37,881.988C2481.26,883.07 2481.17,884.172 2481.06,885.25C2480.88,886.941 2480.65,888.531 2480.99,890.211C2481.25,891.441 2481.77,892.57 2482.18,893.75C2482.78,895.461 2483.47,897.109 2484.32,898.711C2485.74,901.398 2487.52,903.879 2488.93,906.578C2490.52,909.621 2491.29,913 2492.79,916.078C2493.28,917.09 2493.82,918.172 2494.51,919.059C2495.48,920.309 2496.74,921.32 2497.87,922.422C2498.07,922.609 2498.27,922.809 2498.46,923.012C2498.64,923.191 2498.8,923.359 2498.97,923.551C2499.22,923.84 2499.84,924.488 2499.84,924.961C2499.85,925.898 2499.05,926.871 2498.49,927.559C2497.09,929.309 2495.34,930.719 2493.95,932.488C2490.78,936.512 2486.71,940.859 2486.23,946.16C2486.05,948.16 2486.4,950.102 2486.92,952.031C2486.64,949.828 2486.58,947.641 2487.23,945.5C2488.28,942.078 2490.92,939.52 2493.41,937.102C2494.48,936.059 2495.49,934.961 2496.61,933.988C2499.31,931.66 2503.39,929.539 2504.2,925.711C2504.81,922.828 2502.74,920.309 2501.07,918.219C2500.44,917.43 2499.53,916.551 2499.15,915.578C2497.67,911.711 2497.36,907.52 2496.02,903.602C2494.91,900.359 2493.25,897.34 2492.25,894.059C2491.97,893.141 2491.82,892.219 2491.66,891.27C2491.51,890.449 2491.14,889.512 2491.16,888.672C2491.16,888.609 2491.13,888.539 2491.19,888.512C2491.26,888.469 2491.22,888.809 2491.25,888.73C2491.56,887.699 2491.82,886.641 2492.1,885.602C2493.16,881.551 2494.18,877.281 2496.61,873.801C2497.25,872.891 2498.1,872.102 2498.84,871.262C2499.35,870.691 2499.83,870.07 2500.38,869.539C2500.92,869 2501.53,868.469 2501.98,867.84C2502.74,866.789 2503.22,865.59 2503.83,864.461C2504.5,863.199 2505.2,861.961 2505.87,860.691C2508.61,855.441 2511.32,850.301 2512.73,844.512" style="fill:rgb(171,108,66);fill-rule:nonzero;"/>
            <path d="M2537.83,1011.15C2537.44,1011.69 2536.75,1012.2 2536.7,1012.91C2536.65,1013.49 2536.89,1014.07 2537.01,1014.63C2537.1,1015.01 2537.18,1015.38 2537.26,1015.76C2537.7,1017.66 2538.17,1019.56 2538.67,1021.44C2539.67,1025.14 2540.81,1028.82 2541.97,1032.48C2542.62,1034.54 2543.14,1036.83 2544.23,1038.72C2544.91,1039.92 2545.83,1041.05 2546.64,1042.17C2547.89,1043.9 2549.14,1045.62 2550.34,1047.38C2551.84,1049.57 2553.28,1051.8 2554.73,1054.03C2555.19,1054.73 2555.77,1055.49 2556.14,1056.25C2557.22,1058.46 2557.58,1060.96 2558.53,1063.22C2559.67,1065.92 2561.37,1068.24 2563.3,1070.43C2564.51,1071.82 2565.82,1073.14 2567.09,1074.48C2568.21,1075.66 2569.26,1076.9 2570.45,1078.02C2571.85,1079.34 2573.39,1080.52 2574.96,1081.63C2582.87,1087.17 2592.15,1090.43 2601,1094.11C2609.88,1097.81 2618.68,1101.54 2627.94,1104.21C2618.71,1100.24 2610.11,1095.15 2601.4,1090.16C2593.88,1085.85 2585.92,1081.86 2579.51,1075.92C2577.23,1073.8 2575.57,1071.5 2573.77,1068.99C2572.57,1067.31 2571.3,1065.67 2570.23,1063.91C2569.43,1062.59 2568.75,1061.24 2568.38,1059.74C2567.78,1057.3 2567.72,1054.78 2567,1052.37C2566.42,1050.44 2565.51,1048.65 2564.71,1046.81C2563.82,1044.79 2562.9,1042.8 2561.98,1040.79C2561.06,1038.79 2560.12,1036.79 2559.19,1034.8C2558.56,1033.47 2557.98,1032.02 2557.18,1030.79C2555.94,1028.87 2554.1,1027.33 2552.44,1025.8C2549.36,1022.95 2546.12,1020.26 2542.97,1017.49C2541.54,1016.23 2540.12,1014.96 2538.74,1013.66C2538.46,1013.4 2538.2,1013.12 2537.92,1012.88C2537.78,1012.75 2537.78,1012.88 2537.73,1012.63C2537.65,1012.15 2537.82,1011.63 2537.83,1011.15" style="fill:rgb(171,108,66);fill-rule:nonzero;"/>
            <path d="M2585.38,1031.26C2586.09,1036.78 2587.32,1042.19 2588.98,1047.5C2589.71,1049.84 2590.41,1052.38 2591.65,1054.5C2592.84,1056.53 2594.79,1058.16 2596.42,1059.83C2598.18,1061.63 2599.88,1063.47 2601.66,1065.26C2604.74,1068.37 2607.94,1071.38 2611.16,1074.35C2612.99,1076.04 2614.77,1077.79 2616.84,1079.18C2619.49,1080.98 2622.43,1082.22 2625.3,1083.6C2627.44,1084.63 2629.57,1085.66 2631.73,1086.62C2635.88,1088.44 2640.09,1090.08 2644.22,1091.95C2646.7,1093.07 2649.14,1094.27 2651.53,1095.59C2655.26,1097.65 2658.95,1099.93 2663.01,1101.33C2665.82,1102.3 2668.66,1102.76 2671.63,1102.8C2668.77,1102.33 2666.08,1101.48 2663.51,1100.13C2659.8,1098.2 2656.59,1095.45 2653.28,1092.92C2651.04,1091.2 2648.72,1089.6 2646.35,1088.06C2643.08,1085.94 2639.73,1083.96 2636.44,1081.88C2633.97,1080.32 2631.59,1078.65 2629.19,1076.99C2626.66,1075.23 2623.92,1073.64 2621.79,1071.37C2620.31,1069.79 2619.05,1067.92 2617.75,1066.2C2614.63,1062.09 2611.7,1057.91 2608.93,1053.56C2607.93,1051.98 2606.94,1050.38 2605.95,1048.79C2605.22,1047.61 2604.52,1046.42 2603.54,1045.43C2602.54,1044.43 2601.35,1043.65 2600.21,1042.83C2599.05,1041.99 2597.87,1041.18 2596.7,1040.35C2592.75,1037.54 2588.94,1034.54 2585.38,1031.26" style="fill:rgb(171,108,66);fill-rule:nonzero;"/>
            <path d="M2614.01,946.57C2613.77,948.781 2613.03,950.98 2613.26,953.219C2613.61,956.59 2615.92,959.191 2617.56,962C2618,962.762 2618.38,963.539 2618.84,964.289C2619.99,966.16 2621.38,967.879 2622.7,969.621C2623.36,970.5 2624.05,971.48 2624.83,972.262C2625.29,972.711 2625.81,973.051 2626.31,973.449C2627,974 2627.69,974.559 2628.38,975.109C2631.64,977.699 2635.11,980.09 2638.76,982.109C2641.6,983.672 2644.59,985.172 2647.73,986.031C2651.11,986.949 2654.61,987.02 2658.05,987.559C2662.36,988.25 2666.65,988.91 2671,989.289C2677.39,989.852 2683.8,990.031 2690.2,990.391C2693.53,990.57 2696.87,990.73 2700.17,991.23C2704.54,991.891 2708.83,993.012 2713.19,993.711C2718.75,994.602 2724.39,994.922 2729.97,995.691C2724.57,994.211 2719.03,993.172 2713.66,991.578C2709.4,990.32 2705.29,988.66 2701.02,987.441C2697.68,986.48 2694.24,985.859 2690.83,985.211C2683.6,983.828 2676.36,982.559 2669.22,980.789C2666.21,980.039 2663.26,979.121 2660.31,978.191C2658.65,977.66 2657,977.23 2655.32,976.77C2653.75,976.352 2652.12,975.922 2650.68,975.141C2646.78,973.039 2643.29,969.949 2640.27,966.738C2638.38,964.73 2636.8,962.262 2634.56,960.621C2632.62,959.211 2630.22,958.41 2628.03,957.48C2626,956.629 2624.08,955.57 2622.07,954.66C2620.73,954.059 2618.76,953.488 2617.59,952.559C2615.73,951.09 2615.11,948.578 2614.01,946.57" style="fill:rgb(171,108,66);fill-rule:nonzero;"/>
            <path d="M2647.13,958.52C2646.17,958.359 2644.99,958.559 2644.03,958.648C2642.46,958.789 2640.87,958.871 2639.29,958.898C2635.3,958.949 2631.3,958.66 2627.31,958.578C2630.69,962.32 2633.87,966.289 2637.73,969.559C2639.1,970.73 2640.56,971.84 2642.15,972.699C2642.52,972.898 2642.88,973.129 2643.28,973.262C2644.06,973.52 2644.9,973.57 2645.72,973.672C2646.9,973.809 2648.11,973.852 2649.3,973.922C2653.79,974.199 2658.29,974.23 2662.79,974.328C2664.92,974.371 2667.03,974.43 2669.15,974.609C2671.86,974.852 2674.56,975.238 2677.28,975.391C2679.94,975.539 2682.62,975.43 2685.28,975.27C2692.85,974.82 2700.36,973.641 2707.95,973.449C2712.64,973.328 2717.27,973.648 2721.88,974.52C2717.42,972.82 2712.83,971.699 2708.11,970.969C2699.48,969.648 2690.73,969.602 2682.11,968.148C2677.51,967.379 2673.17,965.699 2668.68,964.512C2664.05,963.281 2659.34,962.379 2654.73,961.09C2653.09,960.641 2651.49,960.109 2649.9,959.52C2649.09,959.23 2647.96,958.66 2647.13,958.52" style="fill:rgb(171,108,66);fill-rule:nonzero;"/>
            <path d="M2959.44,804.672C2955.91,808.41 2952.64,812.371 2949.65,816.559C2948.4,818.328 2946.8,820.238 2946.2,822.359C2945.82,823.711 2945.75,825.211 2945.58,826.602C2945.36,828.328 2945.1,830.051 2944.82,831.77C2944.02,836.801 2942.86,841.789 2941.18,846.609C2940.57,848.379 2939.91,850.211 2939.05,851.879C2938.15,853.629 2936.58,854.98 2935.26,856.391C2934.26,857.449 2933.31,858.57 2932.47,859.75C2931,861.789 2929.63,863.828 2927.98,865.738C2924.25,870.051 2919.99,873.859 2915.97,877.879C2914.49,879.359 2913,880.84 2911.61,882.398C2910.22,883.941 2908.92,885.602 2907.59,887.191C2909.16,885.859 2910.71,884.461 2912.33,883.18C2917.67,878.969 2923.56,875.469 2928.98,871.359C2931.13,869.73 2933.21,868.031 2935.16,866.18C2936.34,865.07 2937.39,863.828 2938.64,862.789C2940.75,861.051 2943.16,859.699 2945.07,857.711C2947.02,855.68 2948.48,853.148 2949.9,850.75C2952.62,846.172 2954.77,841.309 2956.84,836.41C2957.71,834.359 2958.52,832.281 2959.35,830.211C2959.87,828.891 2960.56,827.539 2960.88,826.16C2961.22,824.73 2961.01,823.211 2960.88,821.77C2960.75,820.262 2960.58,818.762 2960.41,817.25C2959.94,813.059 2959.58,808.879 2959.44,804.672" style="fill:rgb(171,108,66);fill-rule:nonzero;"/>
            <path d="M2946.7,838.48C2943.62,838.809 2940.54,839.211 2937.48,839.738C2936.92,839.84 2936.34,839.879 2935.79,840.051C2935.32,840.199 2934.84,840.352 2934.47,840.68C2934.14,840.98 2934.03,841.449 2933.81,841.84C2933.6,842.23 2933.4,842.641 2933.19,843.031C2932.55,844.18 2931.73,845.219 2931.09,846.359C2931.08,846.371 2931.3,846.23 2931.24,846.422C2931.17,846.68 2930.84,846.98 2930.65,847.141C2928.25,849.109 2925.28,850.27 2922.62,851.809C2920.69,852.93 2919.22,854.621 2917.32,855.77C2913.67,857.949 2909.41,858.98 2905.37,860.16C2909.42,860.441 2913.54,860.852 2917.6,860.309C2918.83,860.148 2920.04,859.898 2921.24,859.531C2922.56,859.121 2923.92,858.48 2925.31,858.34C2929.11,857.941 2933.28,857.84 2936.86,856.328C2937.59,856.02 2938.19,855.641 2938.86,855.23C2940.68,854.129 2942.55,853.09 2944.32,851.91C2944.76,851.621 2945.28,851.379 2945.61,850.969C2945.93,850.559 2946.08,850.031 2946.2,849.531C2946.49,848.34 2946.43,847.102 2946.49,845.891C2946.6,843.422 2946.62,840.961 2946.7,838.48" style="fill:rgb(171,108,66);fill-rule:nonzero;"/>
            <path d="M3012.01,904.57C3010.82,907.77 3009.3,910.852 3008.28,914.109C3008.1,914.66 3007.96,915.23 3007.84,915.801C3007.72,916.371 3007.56,916.941 3007.58,917.531C3007.61,918.078 3007.78,918.641 3007.99,919.16C3008.63,920.738 3009.8,922.199 3010.78,923.578C3012.51,926.012 3014.7,927.949 3017.15,929.629C3018.9,930.84 3020.76,931.871 3022.42,933.211C3023.88,934.379 3025.23,935.691 3026.56,937C3031.86,942.23 3036.26,948.27 3038.92,955.262C3038.42,948.219 3036.2,941.602 3033.15,935.281C3031.88,932.641 3030.51,930.02 3028.91,927.559C3027.42,925.262 3025.57,923.199 3024.05,920.91C3023.01,919.352 3022.67,918.281 3022.39,916.488C3022.23,915.461 3022.44,914.23 3021.79,913.32C3021.53,912.949 3021.16,912.691 3020.82,912.379C3020.05,911.672 3019.22,910.988 3018.44,910.281C3016.31,908.352 3014.24,906.379 3012.01,904.57" style="fill:rgb(171,108,66);fill-rule:nonzero;"/>
            <path d="M2916.81,896.32C2921.42,898.391 2926.17,899.871 2931.05,901.121C2937.51,902.77 2944.09,904.109 2950.25,906.711C2954.6,908.539 2958.47,911.18 2962.07,914.199C2963.2,915.141 2964.29,916.09 2965.34,917.121C2966.1,917.871 2966.8,918.762 2967.81,919.191C2968.57,919.512 2969.34,919.559 2970.13,919.691C2971.37,919.891 2972.63,920.078 2973.87,920.289C2976.9,920.801 2979.89,921.441 2982.87,922.199C2981.75,918.219 2980.47,914.309 2978.63,910.59C2978.06,909.422 2977.45,908.012 2976.53,907.051C2975.38,905.828 2973.57,905.289 2972.08,904.629C2969.37,903.449 2966.61,902.34 2963.83,901.34C2958.24,899.328 2952.52,898.219 2946.58,897.859C2939.73,897.449 2932.85,897.828 2926,897.449C2922.91,897.281 2919.86,896.898 2916.81,896.32" style="fill:rgb(171,108,66);fill-rule:nonzero;"/>
            <path d="M2935.1,708.219C2931.31,712.25 2927.83,716.602 2923.81,720.391C2922.83,721.309 2921.84,722.23 2920.77,723.031C2919.44,724.02 2917.94,724.93 2916.81,726.172C2916.07,726.988 2915.43,727.988 2914.78,728.891C2913.6,730.531 2912.52,732.25 2911.29,733.852C2909.22,736.539 2906.62,738.801 2903.61,740.371C2898.39,743.102 2892.29,743.859 2886.55,744.77C2884.28,745.121 2882.1,745.121 2879.93,745.988C2878.27,746.648 2876.75,747.809 2875.82,749.34C2875.27,750.262 2874.99,751.289 2874.31,752.141C2872.91,753.879 2870.61,754.949 2868.42,755.18C2865.98,755.43 2863.78,754.25 2861.7,753.141C2859.64,752.039 2857.6,750.961 2855.31,750.379C2852.32,749.629 2849.15,750.461 2846.15,750.57C2840.64,750.781 2835.36,750.762 2829.93,751.949C2832.63,751.73 2835.33,751.719 2838.02,751.922C2840.72,752.109 2843.39,752.48 2846.09,752.73C2848.02,752.922 2849.98,752.84 2851.92,753.051C2852.71,753.129 2853.56,753.238 2854.3,753.551C2856.93,754.629 2859,756.48 2861.36,758C2863.52,759.391 2865.85,760.359 2868.45,760.48C2872.01,760.648 2875.72,759.469 2878.49,757.219C2879.4,756.469 2880.19,755.578 2880.87,754.609C2881.15,754.219 2881.4,753.789 2881.68,753.391C2881.73,753.328 2881.77,753.199 2881.84,753.23C2881.95,753.281 2882.04,753.219 2882.37,753.141C2883.55,752.84 2884.85,753.109 2886.04,753.141C2887.14,753.172 2888.24,753.129 2889.34,753.109C2894.12,753.012 2898.97,752.949 2903.67,751.98C2909.01,750.879 2914.07,748.59 2918.41,745.301C2920.49,743.719 2922.31,741.898 2924.18,740.09C2925.55,738.781 2927.12,737.539 2928.32,736.078C2929.14,735.078 2929.79,733.852 2930.33,732.691C2933.9,725.09 2934.04,716.41 2935.1,708.219" style="fill:rgb(171,108,66);fill-rule:nonzero;"/>
            <path d="M2781.16,842.621C2780.98,843.961 2780.89,845.301 2780.75,846.641C2780.59,848.219 2780.32,849.961 2779.21,851.191C2777.81,852.75 2775.54,852.82 2773.6,852.629C2771.21,852.398 2768.82,851.711 2766.51,851.09C2761.9,849.859 2757.51,847.891 2752.9,846.641C2750.54,846 2748.16,845.789 2745.75,845.512C2742.67,845.148 2739.5,844.68 2736.49,845.73C2733.87,846.648 2731.93,848.691 2730.66,851.121C2729.78,852.82 2729.27,854.68 2728.59,856.461C2727.96,858.121 2726.93,859.59 2725.86,861.012C2724.6,862.68 2723.21,864.27 2721.69,865.711C2720.49,866.852 2719.19,868.09 2717.68,868.781C2717.1,869.051 2716.62,868.922 2715.98,869.039C2714.84,869.238 2713.59,869.371 2712.47,869.691C2711.67,869.922 2710.8,870.469 2710.12,870.949C2709.83,871.148 2709.44,871.398 2709.18,871.641C2709.13,871.68 2709.14,871.75 2709.08,871.762C2706.85,872.488 2704.4,872.18 2702.15,871.762C2700.56,871.469 2698.98,871.07 2697.41,870.699C2697.03,870.609 2696.64,870.52 2696.25,870.449C2695.99,870.398 2696.1,870.559 2695.85,870.32C2695.43,869.93 2695.22,869.289 2694.9,868.809C2694.81,869.641 2694.4,870.57 2694.75,871.391C2695,871.988 2695.49,872.461 2695.88,872.988C2696.87,874.359 2697.84,875.73 2698.92,877.031C2701.04,879.609 2703.59,881.891 2706.63,883.309C2708.03,883.961 2709.67,884.27 2711.18,884.469C2712.85,884.691 2714.63,884.801 2716.3,884.398C2717.64,884.078 2718.89,883.441 2720.15,882.898C2721.3,882.41 2722.44,881.969 2723.51,881.328C2726.29,879.648 2728.53,877.121 2730.44,874.52C2733.03,871 2735.29,867.121 2736.87,863.039C2737.74,860.789 2738.07,858.5 2738.5,856.141C2738.72,854.961 2738.87,853.391 2740.16,852.941C2742.29,852.211 2744.76,852.422 2746.97,852.289C2749.18,852.148 2751.33,852.211 2753.53,852.512C2757.05,852.98 2760.49,853.898 2764,854.422C2765.55,854.648 2767.11,854.801 2768.68,854.922C2772.62,855.23 2778.54,855.719 2780.66,851.441C2781.97,848.77 2781.2,845.449 2781.16,842.621" style="fill:rgb(171,108,66);fill-rule:nonzero;"/>
            <path d="M2781.16,780.68C2776.35,783.129 2771.36,786.02 2768.11,790.461C2766.35,792.879 2765.18,795.672 2763.63,798.211C2762.77,799.609 2761.81,801.07 2760.46,802.039C2759.39,802.801 2758.06,803.262 2756.91,803.891C2755.18,804.84 2753.48,805.852 2751.64,806.59C2750.59,807.012 2749.47,807.391 2748.32,807.398C2746.63,807.422 2744.95,807.039 2743.33,806.59C2742.53,806.359 2741.68,806.09 2740.85,806.211C2740.35,806.289 2739.86,806.488 2739.38,806.648C2738.31,807 2737.27,807.398 2736.21,807.781C2735.09,808.18 2733.96,808.559 2732.86,809C2731.94,809.359 2731.01,809.961 2730.06,810.262C2729.05,810.578 2727.97,810.66 2726.93,810.852C2727.62,811.711 2728.22,812.672 2729,813.461C2729.86,814.32 2730.94,814.988 2731.88,815.738C2732.78,816.461 2733.66,817.199 2734.55,817.91C2735.39,818.578 2736.5,819.48 2737.4,820.039C2737.91,820.359 2738.41,820.691 2738.97,820.891C2740.08,821.289 2741.34,821.211 2742.52,821.109C2743.77,821 2745.01,820.828 2746.25,820.609C2749.26,820.059 2752.29,819.109 2754.87,817.441C2757.61,815.672 2759.85,813.379 2762.18,811.129C2763.25,810.109 2764.42,809.16 2765.41,808.059C2766.29,807.078 2767.02,805.969 2767.61,804.801C2769.92,800.18 2769.94,794.711 2772.56,790.238C2774.76,786.52 2777.93,783.5 2781.16,780.68" style="fill:rgb(171,108,66);fill-rule:nonzero;"/>
            <path d="M2645.57,923.77C2644.97,923.859 2644.44,924.219 2643.9,924.488C2642.96,924.961 2641.51,925.871 2640.61,926.398C2638.33,927.75 2636.02,929.031 2633.65,930.23C2636.14,932.609 2638.72,934.871 2641.55,936.852C2642.1,937.23 2642.66,937.609 2643.25,937.941C2643.79,938.262 2644.33,938.68 2644.94,938.82C2645.49,938.949 2646.07,938.82 2646.63,938.762C2647.77,938.641 2648.89,938.352 2650.02,938.16C2652.87,937.699 2655.54,937.211 2658.43,937.539C2664.14,938.191 2669.49,940.641 2675.14,941.648C2680.39,942.578 2685.82,942.461 2691.11,943.09C2689.34,942.328 2687.55,941.59 2685.75,940.922C2682.25,939.641 2678.66,938.551 2675.4,936.719C2670.63,934.051 2666.39,930.512 2661.47,928.102C2658.43,926.602 2655.44,925.891 2652.15,925.148C2650.5,924.77 2648.86,924.27 2647.2,923.961C2646.66,923.852 2646.11,923.68 2645.57,923.77" style="fill:rgb(254,238,225);fill-rule:nonzero;"/>
            <path d="M2555.74,873.801C2556.01,877.051 2556.47,880.238 2556.9,883.461C2556.99,884.18 2556.98,884.93 2557.18,885.629C2557.34,886.211 2557.65,886.781 2557.96,887.289C2558.05,887.43 2558.23,887.469 2558.37,887.57C2558.79,887.871 2559.01,888.02 2559.41,888.359C2560.43,889.219 2561.34,890.23 2562.29,891.18C2564.05,892.941 2565.82,894.789 2568.09,895.879C2572.59,898.039 2578.06,897.801 2582.9,897.73C2584.53,897.711 2586.19,897.621 2587.82,897.801C2589.94,898.02 2591.83,899.238 2593.85,899.84C2596.24,900.539 2598.76,900.789 2601.22,901.18C2599.06,900.102 2596.79,899.148 2594.79,897.801C2592.84,896.48 2591.28,894.68 2589.11,893.691C2587.67,893.02 2586.1,892.578 2584.59,892.09C2582.62,891.449 2580.67,890.82 2578.73,890.078C2577.34,889.551 2575.9,888.91 2574.68,888.039C2574.26,887.738 2573.69,887.328 2573.49,886.82C2573.47,886.762 2573.44,886.719 2573.46,886.66C2573.47,886.621 2573.57,886.602 2573.55,886.57C2573.23,885.73 2572.79,884.949 2572.45,884.121C2571.82,882.551 2571.21,880.98 2570.48,879.449C2570.33,879.141 2570.2,878.828 2570.04,878.539C2569.86,878.211 2569.71,877.828 2569.44,877.57C2567.56,875.738 2565.35,875.52 2562.89,875.059C2560.51,874.609 2558.12,874.262 2555.74,873.801" style="fill:rgb(254,238,225);fill-rule:nonzero;"/>
            <path d="M2498.4,823.461C2497.75,823.441 2497.07,823.309 2496.46,823.52C2495.9,823.711 2495.48,824.219 2495.04,824.621C2494.59,825.031 2494.21,825.5 2493.79,825.941C2492.1,827.691 2490.46,829.461 2488.87,831.301C2486.77,833.719 2485.6,836.68 2483.66,839.211C2482.15,841.18 2480.5,843.039 2478.99,845.012C2478.12,846.121 2477.28,847.23 2476.63,848.488C2475,851.641 2474.28,855.23 2472.99,858.531C2473.91,857.461 2474.79,856.422 2475.63,855.301C2476.85,853.68 2477.99,851.98 2479.49,850.59C2480.75,849.41 2482.34,848.52 2483.82,847.641C2485.42,846.691 2487.06,845.801 2488.65,844.82C2489.62,844.219 2490.57,843.609 2491.47,842.91C2492.59,842.039 2493.62,841.059 2494.83,840.301C2495.54,839.859 2496.47,839.488 2497.21,839.141C2498.57,838.512 2499.99,837.961 2501.41,837.48C2501.9,837.32 2502.4,837.191 2502.89,837.012C2503.35,836.828 2503.91,836.738 2504.27,836.379C2504.69,835.949 2504.86,835.34 2505.11,834.781C2505.39,834.18 2505.62,833.551 2505.87,832.93C2506.89,830.32 2507.84,827.691 2508.81,825.059C2506.04,824.551 2503.28,823.969 2500.47,823.648C2499.78,823.57 2499.09,823.48 2498.4,823.461" style="fill:rgb(254,238,225);fill-rule:nonzero;"/>
            <path d="M2667.11,686.551C2663.12,687.84 2658.53,688.391 2654.91,690.602C2652,692.379 2649.53,694.762 2646.85,696.871C2645.47,697.961 2643.94,698.98 2642.3,699.66C2641.03,700.191 2639.62,700.41 2638.29,700.699C2636.36,701.109 2634.43,701.449 2632.46,701.512C2631.39,701.539 2630.41,701.359 2629.35,701.289C2629.06,701.281 2628.75,701.211 2628.47,701.289C2627.78,701.512 2627.28,702.141 2626.72,702.609C2626.06,703.148 2625.41,703.68 2624.74,704.211C2622.57,705.93 2620.35,707.59 2618.22,709.352C2621.28,711.43 2624.23,713.801 2627.56,715.441C2627.99,715.648 2628.4,715.879 2628.85,716.039C2629.3,716.191 2629.75,716.379 2630.23,716.379C2630.68,716.379 2631.11,716.199 2631.55,716.07C2631.96,715.941 2632.36,715.781 2632.77,715.629C2634.92,714.828 2637.02,713.82 2639.01,712.68C2642.76,710.531 2646.55,708.262 2649.39,704.961C2652.44,701.43 2654.26,697.07 2657.3,693.551C2658.74,691.871 2660.71,690.672 2662.57,689.531C2664.12,688.578 2665.63,687.609 2667.11,686.551" style="fill:rgb(254,238,225);fill-rule:nonzero;"/>
            <path d="M2741.54,698.5C2741,698.531 2740.47,698.719 2739.94,698.879C2739.44,699.031 2738.96,699.23 2738.47,699.441C2735.72,700.648 2733.24,702.43 2730.57,703.801C2732.37,706.211 2734.5,708.352 2736.37,710.699C2736.64,711.039 2736.9,711.391 2737.15,711.738C2737.51,712.219 2737.8,712.859 2738.44,713.059C2738.65,713.121 2739.46,712.98 2739.69,712.988C2739.94,713 2740.22,713.23 2740.42,713.09C2740.56,712.98 2740.13,712.871 2740.01,712.738C2739.92,712.648 2739.86,712.559 2739.79,712.461C2739.68,712.32 2739.07,711.328 2739.51,711.461C2739.56,711.469 2739.62,711.48 2739.66,711.52C2740.01,711.84 2740.23,712.422 2740.42,712.84C2740.78,713.66 2741.11,714.52 2741.54,715.309C2742.53,717.129 2744.18,718.949 2745.56,720.488C2746.92,722 2748.38,723.461 2750.08,724.602C2755.68,728.359 2762.63,728.66 2769.11,729.43C2765.95,727.859 2762.72,726.379 2759.71,724.539C2757.7,723.309 2755.8,721.789 2754.47,719.828C2753.46,718.359 2752.83,716.609 2752.27,714.941C2751.91,713.859 2751.52,712.73 2751.3,711.609C2751.27,711.469 2751.38,711.352 2751.39,711.211C2751.45,710.68 2751.45,710.102 2751.42,709.57C2751.36,708.262 2751.15,706.941 2750.67,705.719C2749.79,703.449 2747.94,701.879 2746.03,700.48C2744.73,699.52 2743.25,698.41 2741.54,698.5" style="fill:rgb(254,238,225);fill-rule:nonzero;"/>
            <path d="M2881.97,680.219C2881.46,680.09 2880.95,680.262 2880.43,680.34C2879.27,680.531 2878.11,680.879 2876.98,681.191C2874.61,681.828 2872.27,682.559 2869.92,683.289C2871.28,686.02 2872.55,688.789 2874.03,691.441C2874.32,691.961 2874.6,692.469 2874.94,692.949C2875.25,693.391 2875.52,693.922 2875.98,694.211C2876.4,694.469 2876.93,694.43 2877.42,694.52C2877.91,694.609 2878.43,694.66 2878.92,694.738C2879.93,694.898 2880.93,695.078 2881.94,695.238C2884.48,695.629 2886.98,696 2889.56,696.09C2893.33,696.211 2897.15,695.988 2900.91,696.34C2905.89,696.801 2910.04,700.449 2913.8,703.359C2911.25,699.34 2908.71,695.141 2904.71,692.391C2903.4,691.488 2902.01,690.84 2900.57,690.191C2897.27,688.711 2893.82,687.609 2890.59,685.988C2888.34,684.852 2886.24,683.371 2884.23,681.852C2883.85,681.57 2883.5,681.281 2883.13,681C2882.76,680.73 2882.41,680.32 2881.97,680.219" style="fill:rgb(254,238,225);fill-rule:nonzero;"/>
            <path d="M3030.67,839.109C3028.9,841.648 3027.14,844.172 3025.46,846.77C3024.69,847.961 3023.72,849.289 3023.27,850.66C3022.72,852.301 3023.48,854.211 3023.8,855.828C3024.39,858.828 3024.93,861.828 3025.46,864.828C3027.58,876.77 3029.64,888.711 3031.92,900.621C3033,888.609 3034.14,876.602 3035.94,864.672C3036.39,861.691 3036.85,858.711 3037.41,855.738C3037.72,854.121 3038.5,852.281 3037.95,850.66C3037.5,849.328 3036.49,848 3035.75,846.828C3034.11,844.219 3032.38,841.672 3030.67,839.109" style="fill:rgb(254,238,225);fill-rule:nonzero;"/>
            <path d="M2879.65,761.199C2879.27,761.27 2878.9,761.52 2878.58,761.73C2877.83,762.238 2877.22,762.879 2876.54,763.488C2874.39,765.41 2872.33,767.469 2870.27,769.48C2872.58,771.199 2874.9,772.949 2877.29,774.559C2878.06,775.078 2878.78,775.66 2879.61,776.039C2879.98,776.199 2880.37,776.371 2880.78,776.379C2881.15,776.391 2881.52,776.18 2881.87,776.07C2882.61,775.84 2883.34,775.578 2884.07,775.352C2886.26,774.641 2888.43,773.969 2890.62,773.281C2894.1,772.172 2897.63,771.109 2901.04,769.789C2904.62,768.41 2908.12,766.82 2911.7,765.441C2914.1,764.512 2916.52,763.762 2918.98,763.02C2917.68,762.949 2916.36,762.828 2915.06,762.801C2911.21,762.711 2907.36,763.02 2903.51,763.148C2899.92,763.262 2896.35,763.16 2892.76,762.891C2889.84,762.68 2886.93,762.309 2884.04,761.891C2882.94,761.73 2881.84,761.488 2880.74,761.328C2880.37,761.27 2880.01,761.129 2879.65,761.199" style="fill:rgb(254,238,225);fill-rule:nonzero;"/>
            <path d="M2723.16,653.211C2721.14,653.309 2719.22,653.762 2717.24,654.148C2715.27,654.539 2713.3,654.93 2711.34,655.309C2710.69,655.441 2710,655.488 2709.36,655.691C2708.75,655.879 2708.11,656.07 2707.61,656.469C2707.04,656.922 2706.66,657.59 2706.23,658.172C2705.78,658.762 2705.36,659.391 2704.94,660.02C2703.23,662.559 2701.63,665.172 2699.99,667.762C2703,668.41 2706.01,669.039 2709.05,669.551C2709.79,669.672 2710.53,669.809 2711.28,669.898C2711.98,669.98 2712.71,670.18 2713.41,670.078C2714.03,670 2714.58,669.691 2715.13,669.391C2716.25,668.801 2717.22,667.961 2718.27,667.262C2719.83,666.238 2721.41,665.27 2723.01,664.309C2723.92,663.762 2724.82,663.289 2725.83,662.93C2727.67,662.27 2729.59,661.941 2731.51,661.578C2733.25,661.262 2734.98,660.93 2736.71,660.578C2743.84,659.148 2750.94,657.898 2758.23,658.289C2755.56,657.359 2752.88,656.609 2750.11,656.059C2745.6,655.18 2740.99,654.789 2736.43,654.309C2732.04,653.84 2727.59,652.988 2723.16,653.211" style="fill:rgb(254,238,225);fill-rule:nonzero;"/>
            <path d="M2737.37,962.441C2736.53,962.539 2735.75,962.871 2734.93,963.102C2732.38,963.828 2729.85,964.691 2727.34,965.512C2728.46,967.93 2729.55,970.371 2730.79,972.73C2731.18,973.469 2731.51,974.281 2732.01,974.961C2732.43,975.52 2732.89,976.09 2733.52,976.398C2734.11,976.699 2734.86,976.602 2735.52,976.711C2736.18,976.82 2736.81,976.941 2737.47,977.059C2739.99,977.512 2742.47,978.059 2744.93,978.75C2748.52,979.762 2752.09,981 2755.41,982.699C2759.49,984.801 2763.13,987.539 2766.35,990.789C2765.23,988.27 2763.91,985.871 2762.34,983.578C2758.02,977.309 2752.16,972.27 2746.16,967.68C2744.49,966.41 2742.83,965.129 2741.17,963.852C2740.61,963.422 2740.16,962.84 2739.51,962.602C2738.84,962.352 2738.08,962.359 2737.37,962.441" style="fill:rgb(254,238,225);fill-rule:nonzero;"/>
            <path d="M2692.68,1090.72C2691.5,1090.84 2690.34,1091.2 2689.2,1091.48C2686.24,1092.18 2683.32,1092.97 2680.38,1093.77C2682.45,1096.77 2684.47,1099.81 2686.72,1102.68C2687.08,1103.13 2687.44,1103.64 2687.85,1104.06C2688.22,1104.43 2688.59,1104.8 2689.07,1105.03C2689.53,1105.24 2690.07,1105.23 2690.58,1105.31C2691.08,1105.39 2691.57,1105.46 2692.08,1105.53C2693.14,1105.68 2694.04,1105.83 2695.09,1106C2698.59,1106.56 2702.1,1107.22 2705.57,1107.91C2709.27,1108.65 2712.96,1109.43 2716.61,1110.39C2720.43,1111.39 2724.18,1112.59 2728.06,1113.37C2730.65,1113.89 2733.23,1114.14 2735.87,1114.22C2734.03,1113.62 2732.25,1112.96 2730.5,1112.12C2725.82,1109.86 2721.6,1106.85 2717.17,1104.15C2712.68,1101.41 2708.04,1098.86 2703.47,1096.25C2701.25,1094.98 2699.05,1093.67 2696.88,1092.32C2696.45,1092.05 2696.03,1091.77 2695.59,1091.51C2695.16,1091.25 2694.74,1090.89 2694.25,1090.76C2693.73,1090.62 2693.2,1090.68 2692.68,1090.72" style="fill:rgb(254,238,225);fill-rule:nonzero;"/>
            <path d="M2551.88,1096.21C2555.45,1102.89 2560.6,1107.76 2566.43,1112.46C2568.18,1113.87 2569.98,1115.23 2571.8,1116.54C2572.66,1117.16 2573.53,1117.77 2574.46,1118.29C2576.86,1119.65 2579.7,1120.45 2582.24,1121.56C2586.58,1123.44 2590.86,1125.48 2595.1,1127.58C2599.54,1129.77 2604.16,1131.8 2608.24,1134.64C2612.81,1137.81 2616.89,1141.69 2621.85,1144.27C2629.31,1148.13 2637.71,1149.27 2645.69,1151.57C2653.29,1153.76 2660.28,1158 2668.18,1159.1C2675.17,1160.08 2682.33,1158.44 2689.2,1157.25C2682.49,1157.65 2675.23,1158.5 2668.65,1156.81C2661.02,1154.86 2654.57,1149.86 2647.35,1146.87C2640.17,1143.9 2632.33,1141.92 2625.84,1137.49C2623.75,1136.07 2621.93,1134.3 2620.13,1132.53C2617.62,1130.06 2615.2,1127.51 2612.48,1125.26C2608.66,1122.1 2604.31,1119.51 2600.21,1116.73C2595.25,1113.35 2590.31,1109.87 2585.13,1106.85C2583.68,1106 2582.2,1105.14 2580.61,1104.59C2579.06,1104.05 2577.39,1103.76 2575.78,1103.46C2573.15,1102.96 2570.53,1102.54 2567.91,1102.02C2562.25,1100.89 2556.83,1099.23 2551.88,1096.21" style="fill:rgb(122,73,40);fill-rule:nonzero;"/>
            <path d="M2731.92,1157.6C2731.23,1157.57 2730.57,1157.85 2729.91,1158.03C2728.5,1158.43 2727.14,1159 2725.77,1159.51C2722.91,1160.57 2720.08,1161.7 2717.27,1162.9C2720.15,1165.33 2722.93,1167.9 2725.89,1170.24C2726.48,1170.7 2727.09,1171.17 2727.71,1171.58C2728.3,1171.97 2728.88,1172.43 2729.56,1172.62C2730.23,1172.8 2730.94,1172.69 2731.63,1172.68C2733.04,1172.66 2734.43,1172.57 2735.84,1172.49C2738.73,1172.34 2741.65,1172.17 2744.49,1171.58C2747.42,1170.99 2750.25,1170 2753.15,1169.29C2756.83,1168.4 2760.64,1168.01 2764.41,1167.7C2767.49,1167.44 2770.57,1167.22 2773.6,1166.57C2777.53,1165.71 2781.12,1164.1 2784.58,1162.08C2781.25,1163.03 2777.89,1163.69 2774.42,1163.68C2768.44,1163.66 2762.61,1161.96 2756.69,1161.3C2754.38,1161.04 2752.06,1160.94 2749.73,1160.92C2747.05,1160.89 2744.31,1160.98 2741.67,1160.45C2739.57,1160.03 2737.49,1159.39 2735.46,1158.72C2734.87,1158.53 2734.27,1158.32 2733.67,1158.13C2733.08,1157.94 2732.54,1157.62 2731.92,1157.6" style="fill:rgb(122,73,40);fill-rule:nonzero;"/>
            <path d="M2918.48,995.719C2923.16,996.16 2927.5,997.59 2931.52,1000.05C2935.24,1002.32 2938.48,1005.28 2941.72,1008.17C2945.73,1011.76 2949.8,1015.36 2954.55,1017.96C2963.52,1022.87 2973.85,1024.31 2983.75,1021.66C2985.66,1021.15 2987.51,1020.5 2989.33,1019.71C2991.43,1018.81 2993.46,1017.64 2995.63,1016.89C2995.79,1016.84 2995.94,1016.78 2996.11,1016.77C2996.17,1016.76 2995.89,1016.86 2995.95,1016.86C2996.63,1016.85 2997.31,1016.63 2997.99,1016.67C2998.61,1016.71 2999.25,1016.91 2999.87,1016.86C3001.26,1016.74 3002.68,1016.22 3004.04,1015.92C3007.04,1015.25 3010.65,1014.53 3013.29,1012.84C3016.49,1010.8 3018.53,1007.71 3021.01,1004.94C3017.77,1005.33 3014.47,1006.32 3011.19,1005.79C3010.1,1005.61 3008.83,1004.93 3007.84,1004.47C3005.93,1003.59 3004,1002.64 3001.97,1002.09C3001.33,1001.91 3000.69,1001.69 3000.03,1001.65C2999.37,1001.6 2998.7,1001.73 2998.05,1001.8C2997.27,1001.89 2996.49,1001.94 2995.73,1002.12C2994.96,1002.29 2994.24,1002.58 2993.5,1002.84C2992.05,1003.35 2990.67,1003.94 2989.36,1004.75C2986.72,1006.39 2984.43,1008.57 2981.71,1010.08C2975.73,1013.41 2969.61,1014.36 2962.89,1013.22C2958.86,1012.54 2955.09,1011.17 2951.5,1009.24C2945.6,1006.06 2940.35,1001.81 2934.28,998.922C2929.26,996.52 2924.03,995.379 2918.48,995.719" style="fill:rgb(122,73,40);fill-rule:nonzero;"/>
            <path d="M2920.7,923.359C2921.99,926.391 2922.83,929.629 2924.37,932.551C2925.68,935.031 2927.48,937.141 2929.45,939.109C2930.31,939.961 2931.21,940.879 2932.28,941.488C2933.62,942.262 2935.29,942.52 2936.79,942.84C2939.38,943.379 2941.99,943.809 2944.6,944.16C2950.19,944.891 2955.8,945.262 2961.38,946.012C2963.07,946.23 2964.76,946.59 2966.43,946.879C2967.38,947.051 2968.35,947.18 2969.29,947.379C2970.9,947.73 2972.51,948.391 2974.09,948.891C2975.67,949.391 2977.26,949.781 2978.7,950.621C2980.26,951.52 2981.66,952.66 2983.09,953.75C2984.51,954.84 2985.95,955.891 2987.42,956.922C2992.35,960.398 2997.03,963.789 3001.12,968.27C2999.82,966.199 2998.45,964.199 2996.89,962.309C2994.21,959.078 2991.18,956.172 2988.26,953.16C2985.69,950.5 2983.39,947.371 2980.33,945.219C2978.87,944.191 2977.22,943.41 2975.66,942.559C2974.37,941.852 2973.08,941.051 2971.73,940.449C2970.71,940 2969.61,939.641 2968.57,939.23C2966.9,938.578 2965.24,937.898 2963.55,937.32C2961.18,936.512 2958.8,935.75 2956.43,934.961C2952.24,933.578 2948.04,932.25 2944.01,930.449C2942.86,929.941 2941.73,929.379 2940.62,928.789C2939.83,928.359 2939.03,927.84 2938.14,927.621C2937.23,927.41 2936.25,927.422 2935.32,927.371C2933.76,927.301 2932.15,927.328 2930.61,927C2927.18,926.238 2924.01,924.52 2920.7,923.359" style="fill:rgb(122,73,40);fill-rule:nonzero;"/>
        </g>
    </g>
</svg>
